<svg width="1345" height="982" viewBox="0 0 1345 982" fill="none" xmlns="http://www.w3.org/2000/svg">
<g filter="url(#filter0_f_218_1585)">
<path fill-rule="evenodd" clip-rule="evenodd" d="M925.015 83.3266C973.7 87.6417 990.927 147.746 1026.45 181.313C1064.04 216.843 1128.53 231.538 1136 282.718C1143.77 335.966 1105.24 387.973 1061.09 418.758C1022.29 445.816 970.82 441.67 925.015 429.84C889.962 420.786 869.053 389.784 844.813 362.9C822.579 338.241 798.984 315.25 792.364 282.718C783.957 241.4 780.494 196.691 803.85 161.583C831.532 119.973 875.224 78.9134 925.015 83.3266Z" fill="url(#paint0_linear_218_1585)"/>
</g>
<g filter="url(#filter1_f_218_1585)">
<path fill-rule="evenodd" clip-rule="evenodd" d="M599.879 342.084C699.563 345.357 735.478 461.401 763.911 556.719C789.246 641.653 806.745 742.998 735.113 795.446C662.781 848.406 567.147 806.991 495.278 753.407C427.267 702.7 377.969 626.807 398.841 544.731C424.734 442.911 494.584 338.626 599.879 342.084Z" fill="url(#paint1_linear_218_1585)"/>
</g>
<g filter="url(#filter2_f_218_1585)">
<path fill-rule="evenodd" clip-rule="evenodd" d="M476.783 129.916C507.589 125.659 537.088 109.449 567.267 116.958C602.83 125.808 648.242 139.678 658.011 175.013C668.187 211.821 610.41 239.023 611.567 277.196C613.154 329.547 698.299 380.574 665.481 421.381C633.308 461.385 568.217 391.656 516.99 394.794C482.568 396.904 455.09 451.962 424.438 436.151C391.147 418.978 413.629 361.771 392.712 330.686C375.864 305.647 337.316 304.876 319.644 280.412C294.747 245.947 251.401 201.367 272.719 164.58C295.019 126.1 357.222 147.374 401.056 139.928C426.677 135.576 451.039 133.474 476.783 129.916Z" fill="url(#paint2_linear_218_1585)"/>
</g>
<g filter="url(#filter3_f_218_1585)">
<path fill-rule="evenodd" clip-rule="evenodd" d="M1028.51 350.216C1066.53 352.694 1110.69 297.541 1137.54 324.593C1167.55 354.822 1124.18 406.865 1126.95 449.384C1128.43 471.952 1141.75 490.671 1149.76 511.82C1166.75 556.702 1217.84 598.733 1200.44 643.457C1185.24 682.498 1123.06 668.112 1083.55 681.959C1041.26 696.777 1003.94 736.686 960.045 727.696C916.034 718.682 884.945 676.781 864.024 636.999C845.372 601.532 834.879 556.726 850.788 519.945C865.979 484.823 932.308 491.989 942.676 455.151C956.412 406.344 877.849 348.997 909.943 309.759C936.937 276.757 985.978 347.444 1028.51 350.216Z" fill="url(#paint3_linear_218_1585)"/>
</g>
<g filter="url(#filter4_f_218_1585)">
<path fill-rule="evenodd" clip-rule="evenodd" d="M741.51 58.3993C779.224 49.2511 815.041 86.8134 839.284 117.077C860.349 143.374 858.925 179.536 865.071 212.646C869.737 237.787 869.441 262.046 870.931 287.572C872.854 320.551 882.838 352.46 875.101 384.579C863.354 433.35 856.221 490.465 815.116 519.3C772.872 548.934 710.677 554.645 663.969 532.687C617.839 511.001 609.161 450.503 579.974 408.758C554.557 372.404 507.879 347.283 503.492 303.163C499.122 259.213 524.402 214.213 557.744 185.191C587.398 159.38 637.779 180.435 670.143 158.105C704.497 134.402 700.933 68.2421 741.51 58.3993Z" fill="url(#paint4_linear_218_1585)" fill-opacity="0.9"/>
</g>
<g filter="url(#filter5_f_218_1585)">
<path fill-rule="evenodd" clip-rule="evenodd" d="M280.784 99.387C334.04 133.787 280.996 241.8 332.655 278.562C380.308 312.473 453.61 226.672 503.203 257.667C542.475 282.212 543.612 355.91 516.257 393.311C485.768 434.996 416.096 412.305 371.323 437.978C347.217 451.8 342.473 484.004 323.181 504.02C286.664 541.906 251.468 637.096 208.102 607.323C156.706 572.036 213.527 485.901 206.474 423.893C204.318 404.939 186.737 392.045 181.53 373.695C175.645 352.954 177.024 332.123 174.364 310.726C168.16 260.818 132.866 209.022 155.478 164.116C177.078 121.22 240.472 73.348 280.784 99.387Z" fill="url(#paint5_linear_218_1585)"/>
</g>
<g filter="url(#filter6_f_218_1585)">
<path fill-rule="evenodd" clip-rule="evenodd" d="M408.917 403.675C456.054 397.069 502.742 440.083 524.684 482.443C545.19 522.029 501.241 571.857 517.535 613.365C532.316 651.018 594.901 652.99 606.811 691.654C619.027 731.308 614.968 791.217 578.176 810.216C535.809 832.094 489.312 783.605 442.163 776.677C419.39 773.33 397.286 776.349 374.61 780.301C327.294 788.548 273.498 843.872 237.132 812.411C203.485 783.302 271.134 727.987 263.41 684.099C255.232 637.631 180.603 609.823 193.492 564.443C205.577 521.894 276.839 538.629 312.228 512.218C351.84 482.657 360.018 410.528 408.917 403.675Z" fill="url(#paint6_linear_218_1585)" fill-opacity="0.9"/>
</g>
<g filter="url(#filter7_f_218_1585)">
<path fill-rule="evenodd" clip-rule="evenodd" d="M843.295 486.697C879.861 498.184 866.105 563.688 897.678 585.431C927.485 605.957 981.151 568.389 1003.4 596.948C1023.44 622.676 983.645 657.365 978.846 689.633C974.083 721.663 1000.87 764.701 975.469 784.754C948.025 806.417 905.615 759.205 873.429 772.844C833.679 789.687 828.565 857.081 786.128 864.987C747.094 872.258 709.095 839.057 684.208 808.095C659.683 777.584 636.923 733.975 651.665 697.702C667.62 658.442 731.938 665.002 756.417 630.417C773.696 606.004 745.952 568.222 761.425 542.625C778.882 513.747 811.119 476.588 843.295 486.697Z" fill="url(#paint7_linear_218_1585)"/>
</g>
<defs>
<filter id="filter0_f_218_1585" x="578" y="-125" width="767" height="772" filterUnits="userSpaceOnUse" color-interpolation-filters="sRGB">
<feFlood flood-opacity="0" result="BackgroundImageFix"/>
<feBlend mode="normal" in="SourceGraphic" in2="BackgroundImageFix" result="shape"/>
<feGaussianBlur stdDeviation="104" result="effect1_foregroundBlur_218_1585"/>
</filter>
<filter id="filter1_f_218_1585" x="338" y="286" width="504" height="590" filterUnits="userSpaceOnUse" color-interpolation-filters="sRGB">
<feFlood flood-opacity="0" result="BackgroundImageFix"/>
<feBlend mode="normal" in="SourceGraphic" in2="BackgroundImageFix" result="shape"/>
<feGaussianBlur stdDeviation="28" result="effect1_foregroundBlur_218_1585"/>
</filter>
<filter id="filter2_f_218_1585" x="211" y="59" width="518" height="436" filterUnits="userSpaceOnUse" color-interpolation-filters="sRGB">
<feFlood flood-opacity="0" result="BackgroundImageFix"/>
<feBlend mode="normal" in="SourceGraphic" in2="BackgroundImageFix" result="shape"/>
<feGaussianBlur stdDeviation="28" result="effect1_foregroundBlur_218_1585"/>
</filter>
<filter id="filter3_f_218_1585" x="711" y="169" width="625" height="692" filterUnits="userSpaceOnUse" color-interpolation-filters="sRGB">
<feFlood flood-opacity="0" result="BackgroundImageFix"/>
<feBlend mode="normal" in="SourceGraphic" in2="BackgroundImageFix" result="shape"/>
<feGaussianBlur stdDeviation="66" result="effect1_foregroundBlur_218_1585"/>
</filter>
<filter id="filter4_f_218_1585" x="331" y="-115" width="719" height="833" filterUnits="userSpaceOnUse" color-interpolation-filters="sRGB">
<feFlood flood-opacity="0" result="BackgroundImageFix"/>
<feBlend mode="normal" in="SourceGraphic" in2="BackgroundImageFix" result="shape"/>
<feGaussianBlur stdDeviation="86" result="effect1_foregroundBlur_218_1585"/>
</filter>
<filter id="filter5_f_218_1585" x="16" y="-40" width="651" height="785" filterUnits="userSpaceOnUse" color-interpolation-filters="sRGB">
<feFlood flood-opacity="0" result="BackgroundImageFix"/>
<feBlend mode="normal" in="SourceGraphic" in2="BackgroundImageFix" result="shape"/>
<feGaussianBlur stdDeviation="66" result="effect1_foregroundBlur_218_1585"/>
</filter>
<filter id="filter6_f_218_1585" x="0" y="211" width="805" height="803" filterUnits="userSpaceOnUse" color-interpolation-filters="sRGB">
<feFlood flood-opacity="0" result="BackgroundImageFix"/>
<feBlend mode="normal" in="SourceGraphic" in2="BackgroundImageFix" result="shape"/>
<feGaussianBlur stdDeviation="96" result="effect1_foregroundBlur_218_1585"/>
</filter>
<filter id="filter7_f_218_1585" x="423" y="261" width="810" height="829" filterUnits="userSpaceOnUse" color-interpolation-filters="sRGB">
<feFlood flood-opacity="0" result="BackgroundImageFix"/>
<feBlend mode="normal" in="SourceGraphic" in2="BackgroundImageFix" result="shape"/>
<feGaussianBlur stdDeviation="112" result="effect1_foregroundBlur_218_1585"/>
</filter>
<linearGradient id="paint0_linear_218_1585" x1="786" y1="83" x2="1141.96" y2="433.965" gradientUnits="userSpaceOnUse">
<stop stop-color="#FFF6B7"/>
<stop offset="1" stop-color="#F6416C"/>
</linearGradient>
<linearGradient id="paint1_linear_218_1585" x1="394" y1="342" x2="862.749" y2="726.413" gradientUnits="userSpaceOnUse">
<stop stop-color="#81FFEF"/>
<stop offset="1" stop-color="#F067B4"/>
</linearGradient>
<linearGradient id="paint2_linear_218_1585" x1="267" y1="115" x2="582.926" y2="510.882" gradientUnits="userSpaceOnUse">
<stop stop-color="#ABDCFF"/>
<stop offset="1" stop-color="#0396FF"/>
</linearGradient>
<linearGradient id="paint3_linear_218_1585" x1="843" y1="301" x2="1264.87" y2="656.831" gradientUnits="userSpaceOnUse">
<stop stop-color="#FFA8A8"/>
<stop offset="1" stop-color="#FCFF00"/>
</linearGradient>
<linearGradient id="paint4_linear_218_1585" x1="503" y1="57" x2="975.265" y2="419.166" gradientUnits="userSpaceOnUse">
<stop stop-color="#F6D242"/>
<stop offset="1" stop-color="#FF52E5"/>
</linearGradient>
<linearGradient id="paint5_linear_218_1585" x1="148" y1="92" x2="646.79" y2="462.502" gradientUnits="userSpaceOnUse">
<stop stop-color="#3C8CE7"/>
<stop offset="1" stop-color="#00EAFF"/>
</linearGradient>
<linearGradient id="paint6_linear_218_1585" x1="192" y1="403" x2="610.995" y2="823.995" gradientUnits="userSpaceOnUse">
<stop stop-color="#EE9AE5"/>
<stop offset="1" stop-color="#5961F9"/>
</linearGradient>
<linearGradient id="paint7_linear_218_1585" x1="647" y1="485" x2="1027.5" y2="846.527" gradientUnits="userSpaceOnUse">
<stop stop-color="#FF96F9"/>
<stop offset="1" stop-color="#C32BAC"/>
</linearGradient>
</defs>
</svg>
