<svg width="1156" height="881" viewBox="0 0 1156 881" fill="none" xmlns="http://www.w3.org/2000/svg">
<g opacity="0.6">
<g filter="url(#filter0_f_672_2011)">
<path fill-rule="evenodd" clip-rule="evenodd" d="M736.015 94.3266C784.7 98.6417 801.927 158.746 837.445 192.313C875.041 227.843 939.529 242.538 946.997 293.718C954.766 346.966 916.236 398.973 872.089 429.758C833.286 456.816 781.82 452.67 736.015 440.84C700.962 431.786 680.053 400.784 655.813 373.9C633.579 349.241 609.984 326.25 603.364 293.718C594.957 252.4 591.494 207.691 614.85 172.583C642.532 130.973 686.224 89.9134 736.015 94.3266Z" fill="url(#paint0_linear_672_2011)"/>
</g>
<g filter="url(#filter1_f_672_2011)">
<path fill-rule="evenodd" clip-rule="evenodd" d="M410.879 353.084C510.563 356.357 546.478 472.401 574.911 567.719C600.246 652.653 617.745 753.998 546.113 806.446C473.781 859.406 378.147 817.991 306.278 764.407C238.267 713.7 188.969 637.807 209.841 555.731C235.734 453.911 305.584 349.626 410.879 353.084Z" fill="url(#paint1_linear_672_2011)"/>
</g>
<g filter="url(#filter2_f_672_2011)">
<path fill-rule="evenodd" clip-rule="evenodd" d="M287.783 140.916C318.589 136.659 348.088 120.449 378.267 127.958C413.83 136.808 459.242 150.678 469.011 186.013C479.187 222.821 421.41 250.023 422.567 288.196C424.154 340.547 509.299 391.574 476.481 432.381C444.308 472.385 379.217 402.656 327.99 405.794C293.568 407.904 266.09 462.962 235.438 447.151C202.147 429.978 224.629 372.771 203.712 341.686C186.864 316.647 148.316 315.876 130.644 291.412C105.747 256.947 62.4009 212.367 83.7195 175.58C106.019 137.1 168.222 158.374 212.056 150.928C237.677 146.576 262.039 144.474 287.783 140.916Z" fill="url(#paint2_linear_672_2011)"/>
</g>
<g filter="url(#filter3_f_672_2011)">
<path fill-rule="evenodd" clip-rule="evenodd" d="M839.506 361.216C877.531 363.694 921.686 308.541 948.542 335.593C978.551 365.822 935.181 417.865 937.954 460.384C939.426 482.952 952.747 501.671 960.755 522.82C977.748 567.702 1028.84 609.733 1011.44 654.457C996.243 693.498 934.062 679.112 894.547 692.959C852.261 707.777 814.938 747.686 771.045 738.696C727.034 729.682 695.945 687.781 675.024 647.999C656.372 612.532 645.879 567.726 661.788 530.945C676.979 495.823 743.308 502.989 753.676 466.151C767.412 417.344 688.849 359.997 720.943 320.759C747.937 287.757 796.978 358.444 839.506 361.216Z" fill="url(#paint3_linear_672_2011)"/>
</g>
<g filter="url(#filter4_f_672_2011)">
<path fill-rule="evenodd" clip-rule="evenodd" d="M552.51 69.3993C590.224 60.2511 626.041 97.8134 650.284 128.077C671.349 154.374 669.925 190.536 676.071 223.646C680.737 248.787 680.441 273.046 681.931 298.572C683.854 331.551 693.838 363.46 686.101 395.579C674.354 444.35 667.221 501.465 626.116 530.3C583.872 559.934 521.677 565.645 474.969 543.687C428.839 522.001 420.161 461.503 390.974 419.758C365.557 383.404 318.879 358.283 314.492 314.163C310.122 270.213 335.402 225.213 368.744 196.191C398.398 170.38 448.779 191.435 481.143 169.105C515.497 145.402 511.933 79.2421 552.51 69.3993Z" fill="url(#paint4_linear_672_2011)" fill-opacity="0.9"/>
</g>
<g filter="url(#filter5_f_672_2011)">
<path fill-rule="evenodd" clip-rule="evenodd" d="M91.7836 110.387C145.04 144.787 91.996 252.8 143.655 289.562C191.308 323.473 264.61 237.672 314.203 268.667C353.475 293.212 354.612 366.91 327.257 404.311C296.768 445.996 227.096 423.305 182.323 448.978C158.217 462.8 153.473 495.004 134.181 515.02C97.6643 552.906 62.4677 648.096 19.1017 618.323C-32.294 583.036 24.5268 496.901 17.4742 434.893C15.3185 415.939 -2.26319 403.045 -7.46984 384.695C-13.3549 363.954 -11.9758 343.123 -14.6357 321.726C-20.8397 271.818 -56.1345 220.022 -33.5223 175.116C-11.9217 132.22 51.4716 84.348 91.7836 110.387Z" fill="url(#paint5_linear_672_2011)"/>
</g>
<g filter="url(#filter6_f_672_2011)">
<path fill-rule="evenodd" clip-rule="evenodd" d="M219.917 414.675C267.054 408.069 313.742 451.083 335.684 493.443C356.19 533.029 312.241 582.857 328.535 624.365C343.316 662.018 405.901 663.99 417.811 702.654C430.027 742.308 425.968 802.217 389.176 821.216C346.809 843.094 300.312 794.605 253.163 787.677C230.39 784.33 208.286 787.349 185.61 791.301C138.294 799.548 84.4977 854.872 48.132 823.411C14.4853 794.302 82.1337 738.987 74.4099 695.099C66.232 648.631 -8.39718 620.823 4.49206 575.443C16.577 532.894 87.8393 549.629 123.228 523.218C162.84 493.657 171.018 421.528 219.917 414.675Z" fill="url(#paint6_linear_672_2011)" fill-opacity="0.9"/>
</g>
<g filter="url(#filter7_f_672_2011)">
<path fill-rule="evenodd" clip-rule="evenodd" d="M654.295 497.697C690.861 509.184 677.105 574.688 708.678 596.431C738.485 616.957 792.151 579.389 814.397 607.948C834.438 633.676 794.645 668.365 789.846 700.633C785.083 732.663 811.874 775.701 786.469 795.754C759.025 817.417 716.615 770.205 684.429 783.844C644.679 800.687 639.565 868.081 597.128 875.987C558.094 883.258 520.095 850.057 495.208 819.095C470.683 788.584 447.923 744.975 462.665 708.702C478.62 669.442 542.938 676.002 567.417 641.417C584.696 617.004 556.952 579.222 572.425 553.625C589.882 524.747 622.119 487.588 654.295 497.697Z" fill="url(#paint7_linear_672_2011)"/>
</g>
</g>
<defs>
<filter id="filter0_f_672_2011" x="389" y="-114" width="767" height="772" filterUnits="userSpaceOnUse" color-interpolation-filters="sRGB">
<feFlood flood-opacity="0" result="BackgroundImageFix"/>
<feBlend mode="normal" in="SourceGraphic" in2="BackgroundImageFix" result="shape"/>
<feGaussianBlur stdDeviation="104" result="effect1_foregroundBlur_672_2011"/>
</filter>
<filter id="filter1_f_672_2011" x="149" y="297" width="504" height="590" filterUnits="userSpaceOnUse" color-interpolation-filters="sRGB">
<feFlood flood-opacity="0" result="BackgroundImageFix"/>
<feBlend mode="normal" in="SourceGraphic" in2="BackgroundImageFix" result="shape"/>
<feGaussianBlur stdDeviation="28" result="effect1_foregroundBlur_672_2011"/>
</filter>
<filter id="filter2_f_672_2011" x="22" y="70" width="518" height="436" filterUnits="userSpaceOnUse" color-interpolation-filters="sRGB">
<feFlood flood-opacity="0" result="BackgroundImageFix"/>
<feBlend mode="normal" in="SourceGraphic" in2="BackgroundImageFix" result="shape"/>
<feGaussianBlur stdDeviation="28" result="effect1_foregroundBlur_672_2011"/>
</filter>
<filter id="filter3_f_672_2011" x="522" y="180" width="625" height="692" filterUnits="userSpaceOnUse" color-interpolation-filters="sRGB">
<feFlood flood-opacity="0" result="BackgroundImageFix"/>
<feBlend mode="normal" in="SourceGraphic" in2="BackgroundImageFix" result="shape"/>
<feGaussianBlur stdDeviation="66" result="effect1_foregroundBlur_672_2011"/>
</filter>
<filter id="filter4_f_672_2011" x="142" y="-104" width="719" height="833" filterUnits="userSpaceOnUse" color-interpolation-filters="sRGB">
<feFlood flood-opacity="0" result="BackgroundImageFix"/>
<feBlend mode="normal" in="SourceGraphic" in2="BackgroundImageFix" result="shape"/>
<feGaussianBlur stdDeviation="86" result="effect1_foregroundBlur_672_2011"/>
</filter>
<filter id="filter5_f_672_2011" x="-173" y="-29" width="651" height="785" filterUnits="userSpaceOnUse" color-interpolation-filters="sRGB">
<feFlood flood-opacity="0" result="BackgroundImageFix"/>
<feBlend mode="normal" in="SourceGraphic" in2="BackgroundImageFix" result="shape"/>
<feGaussianBlur stdDeviation="66" result="effect1_foregroundBlur_672_2011"/>
</filter>
<filter id="filter6_f_672_2011" x="-189" y="222" width="805" height="803" filterUnits="userSpaceOnUse" color-interpolation-filters="sRGB">
<feFlood flood-opacity="0" result="BackgroundImageFix"/>
<feBlend mode="normal" in="SourceGraphic" in2="BackgroundImageFix" result="shape"/>
<feGaussianBlur stdDeviation="96" result="effect1_foregroundBlur_672_2011"/>
</filter>
<filter id="filter7_f_672_2011" x="234" y="272" width="810" height="829" filterUnits="userSpaceOnUse" color-interpolation-filters="sRGB">
<feFlood flood-opacity="0" result="BackgroundImageFix"/>
<feBlend mode="normal" in="SourceGraphic" in2="BackgroundImageFix" result="shape"/>
<feGaussianBlur stdDeviation="112" result="effect1_foregroundBlur_672_2011"/>
</filter>
<linearGradient id="paint0_linear_672_2011" x1="597" y1="94" x2="952.964" y2="444.965" gradientUnits="userSpaceOnUse">
<stop stop-color="#FFF6B7"/>
<stop offset="1" stop-color="#F6416C"/>
</linearGradient>
<linearGradient id="paint1_linear_672_2011" x1="205" y1="353" x2="673.749" y2="737.413" gradientUnits="userSpaceOnUse">
<stop stop-color="#81FFEF"/>
<stop offset="1" stop-color="#F067B4"/>
</linearGradient>
<linearGradient id="paint2_linear_672_2011" x1="78" y1="126" x2="393.926" y2="521.882" gradientUnits="userSpaceOnUse">
<stop stop-color="#ABDCFF"/>
<stop offset="1" stop-color="#0396FF"/>
</linearGradient>
<linearGradient id="paint3_linear_672_2011" x1="654" y1="312" x2="1075.87" y2="667.831" gradientUnits="userSpaceOnUse">
<stop stop-color="#FFA8A8"/>
<stop offset="1" stop-color="#FCFF00"/>
</linearGradient>
<linearGradient id="paint4_linear_672_2011" x1="314" y1="68" x2="786.265" y2="430.166" gradientUnits="userSpaceOnUse">
<stop stop-color="#F6D242"/>
<stop offset="1" stop-color="#FF52E5"/>
</linearGradient>
<linearGradient id="paint5_linear_672_2011" x1="-41" y1="103" x2="457.79" y2="473.502" gradientUnits="userSpaceOnUse">
<stop stop-color="#3C8CE7"/>
<stop offset="1" stop-color="#00EAFF"/>
</linearGradient>
<linearGradient id="paint6_linear_672_2011" x1="3" y1="414" x2="421.995" y2="834.995" gradientUnits="userSpaceOnUse">
<stop stop-color="#EE9AE5"/>
<stop offset="1" stop-color="#5961F9"/>
</linearGradient>
<linearGradient id="paint7_linear_672_2011" x1="458" y1="496" x2="838.502" y2="857.527" gradientUnits="userSpaceOnUse">
<stop stop-color="#FF96F9"/>
<stop offset="1" stop-color="#C32BAC"/>
</linearGradient>
</defs>
</svg>
